<svg xmlns="http://www.w3.org/2000/svg" xmlns:xlink="http://www.w3.org/1999/xlink" width="500" zoomAndPan="magnify" viewBox="0 0 375 374.999991" height="500" preserveAspectRatio="xMidYMid meet" version="1.0"><defs><g/><clipPath id="395d6c1b61"><path d="M 162.261719 119.382812 L 197.992188 119.382812 L 197.992188 231.882812 L 162.261719 231.882812 Z M 162.261719 119.382812 " clip-rule="nonzero"/></clipPath><clipPath id="822c12e319"><path d="M 183.09375 113.15625 L 204.96875 113.15625 L 204.96875 135.03125 L 183.09375 135.03125 Z M 183.09375 113.15625 " clip-rule="nonzero"/></clipPath><clipPath id="9d680f6762"><path d="M 194.03125 113.15625 L 204.96875 124.09375 L 194.03125 135.03125 L 183.09375 124.09375 Z M 194.03125 113.15625 " clip-rule="nonzero"/></clipPath></defs><rect x="-37.5" width="450" fill="#ffffff" y="-37.499999" height="449.999989" fill-opacity="1"/><rect x="-37.5" width="450" fill="#ffffff" y="-37.499999" height="449.999989" fill-opacity="1"/><g fill="#ffffff" fill-opacity="1"><g transform="translate(159.356405, 225.297408)"><g><path d="M 7.296875 0 L 7.296875 -83.640625 L 26.59375 -83.640625 L 26.59375 -48.46875 L 60.765625 -83.640625 L 85.359375 -83.640625 L 59.484375 -56.765625 L 89.65625 0 L 67.921875 0 L 45.328125 -42.328125 L 26.59375 -23.15625 L 26.59375 0 Z M 7.296875 0 "/></g></g></g><g clip-path="url(#395d6c1b61)"><path fill="#efecec" d="M 162.261719 119.382812 L 197.992188 119.382812 L 197.992188 231.886719 L 162.261719 231.886719 Z M 162.261719 119.382812 " fill-opacity="1" fill-rule="nonzero"/></g><g fill="#000000" fill-opacity="1"><g transform="translate(146.389137, 256.947406)"><g><path d="M 1.289062 0 L 6.800781 0 L 6.800781 -1.035156 L 2.402344 -1.035156 L 2.402344 -3.992188 L 6.34375 -3.992188 L 6.34375 -5.015625 L 2.402344 -5.015625 L 2.402344 -7.808594 L 6.660156 -7.808594 L 6.660156 -8.847656 L 1.289062 -8.847656 Z M 1.289062 0 "/></g></g></g><g fill="#000000" fill-opacity="1"><g transform="translate(161.707415, 256.947406)"><g><path d="M 0.972656 -2.703125 L 4.828125 -2.703125 L 4.828125 -3.703125 L 0.972656 -3.703125 Z M 0.972656 -2.703125 "/></g></g></g><g fill="#000000" fill-opacity="1"><g transform="translate(175.206563, 256.947406)"><g><path d="M 1.289062 0 L 2.402344 0 L 2.402344 -3.980469 L 3.664062 -3.980469 C 4.007812 -3.980469 4.308594 -4.007812 4.585938 -4.054688 L 6.875 0 L 8.164062 0 L 5.625 -4.460938 C 6.128906 -4.789062 6.484375 -5.296875 6.734375 -5.964844 L 7.824219 -8.847656 L 6.648438 -8.847656 L 5.738281 -6.40625 C 5.382812 -5.445312 4.867188 -5.042969 3.664062 -5.042969 L 2.402344 -5.042969 L 2.402344 -8.847656 L 1.289062 -8.847656 Z M 1.289062 0 "/></g></g></g><g fill="#000000" fill-opacity="1"><g transform="translate(191.548104, 256.947406)"><g><path d="M 7.089844 0 L 8.203125 0 L 8.203125 -8.847656 L 7.089844 -8.847656 L 7.089844 -5.042969 L 2.402344 -5.042969 L 2.402344 -8.847656 L 1.289062 -8.847656 L 1.289062 0 L 2.402344 0 L 2.402344 -3.980469 L 7.089844 -3.980469 Z M 7.089844 0 "/></g></g></g><g fill="#000000" fill-opacity="1"><g transform="translate(208.736036, 256.947406)"><g><path d="M 0.214844 0 L 1.402344 0 L 2.210938 -2.007812 L 6.519531 -2.007812 L 7.355469 0 L 8.53125 0 L 4.890625 -8.847656 L 3.855469 -8.847656 Z M 2.640625 -3.046875 L 4.371094 -7.292969 L 6.105469 -3.046875 Z M 2.640625 -3.046875 "/></g></g></g><g fill="#000000" fill-opacity="1"><g transform="translate(225.178637, 256.947406)"><g><path d="M 3.425781 0 L 4.535156 0 L 4.535156 -7.785156 L 7.519531 -7.785156 L 7.519531 -8.847656 L 0.429688 -8.847656 L 0.429688 -7.785156 L 3.425781 -7.785156 Z M 3.425781 0 "/></g></g></g><g fill="#000000" fill-opacity="1"><g transform="translate(240.837994, 256.947406)"><g><path d="M 0.214844 0 L 1.402344 0 L 2.210938 -2.007812 L 6.519531 -2.007812 L 7.355469 0 L 8.53125 0 L 4.890625 -8.847656 L 3.855469 -8.847656 Z M 2.640625 -3.046875 L 4.371094 -7.292969 L 6.105469 -3.046875 Z M 2.640625 -3.046875 "/></g></g></g><g fill="#ffffff" fill-opacity="1"><g transform="translate(130.612482, 224.397379)"><g><path d="M 6.71875 -83.640625 L 69.78125 -83.640625 L 69.78125 -66.78125 L 28.734375 -66.78125 L 28.734375 -50.046875 L 59.90625 -50.046875 L 59.90625 -32.890625 L 28.734375 -32.890625 L 28.734375 -16.875 L 69.78125 -16.875 L 69.78125 0 L 6.71875 0 Z M 6.71875 -83.640625 "/></g></g></g><g clip-path="url(#822c12e319)"><g clip-path="url(#9d680f6762)"><path fill="#ffffff" d="M 183.09375 113.15625 L 204.96875 113.15625 L 204.96875 135.03125 L 183.09375 135.03125 Z M 183.09375 113.15625 " fill-opacity="1" fill-rule="nonzero"/></g></g></svg>