<svg xmlns="http://www.w3.org/2000/svg" xmlns:xlink="http://www.w3.org/1999/xlink" width="500" zoomAndPan="magnify" viewBox="0 0 375 374.999991" height="500" preserveAspectRatio="xMidYMid meet" version="1.0"><defs><g/><clipPath id="1aaaed95b2"><path d="M 162.261719 119.382812 L 197.992188 119.382812 L 197.992188 231.882812 L 162.261719 231.882812 Z M 162.261719 119.382812 " clip-rule="nonzero"/></clipPath><clipPath id="0782e3e0a2"><path d="M 183.09375 113.15625 L 204.96875 113.15625 L 204.96875 135.03125 L 183.09375 135.03125 Z M 183.09375 113.15625 " clip-rule="nonzero"/></clipPath><clipPath id="ff4f01b8c6"><path d="M 194.03125 113.15625 L 204.96875 124.09375 L 194.03125 135.03125 L 183.09375 124.09375 Z M 194.03125 113.15625 " clip-rule="nonzero"/></clipPath></defs><g fill="#000000" fill-opacity="1"><g transform="translate(159.133749, 224.797404)"><g><path d="M 44.609375 -38.890625 L 28.734375 -22.734375 L 28.734375 0 L 6.71875 0 L 6.71875 -83.640625 L 28.734375 -83.640625 L 28.734375 -51.625 L 59.765625 -83.640625 L 87.5 -83.640625 L 60.90625 -55.625 C 77.300781 -25.019531 87.21875 -6.476562 90.65625 0 L 65.765625 0 Z M 44.609375 -38.890625 "/></g></g></g><g clip-path="url(#1aaaed95b2)"><path fill="#efecec" d="M 162.261719 119.382812 L 197.992188 119.382812 L 197.992188 231.886719 L 162.261719 231.886719 Z M 162.261719 119.382812 " fill-opacity="1" fill-rule="nonzero"/></g><g fill="#000000" fill-opacity="1"><g transform="translate(130.612482, 224.3974)"><g><path d="M 6.71875 -83.640625 L 69.78125 -83.640625 L 69.78125 -66.78125 L 28.734375 -66.78125 L 28.734375 -50.046875 L 59.90625 -50.046875 L 59.90625 -32.890625 L 28.734375 -32.890625 L 28.734375 -16.875 L 69.78125 -16.875 L 69.78125 0 L 6.71875 0 Z M 6.71875 -83.640625 "/></g></g></g><g clip-path="url(#0782e3e0a2)"><g clip-path="url(#ff4f01b8c6)"><path fill="#000000" d="M 183.09375 113.15625 L 204.96875 113.15625 L 204.96875 135.03125 L 183.09375 135.03125 Z M 183.09375 113.15625 " fill-opacity="1" fill-rule="nonzero"/></g></g></svg>