<svg xmlns="http://www.w3.org/2000/svg" xmlns:xlink="http://www.w3.org/1999/xlink" width="500" zoomAndPan="magnify" viewBox="0 0 375 374.999991" height="500" preserveAspectRatio="xMidYMid meet" version="1.0"><defs><g/><clipPath id="ae782e8b7c"><path d="M 162.261719 119.382812 L 197.992188 119.382812 L 197.992188 231.882812 L 162.261719 231.882812 Z M 162.261719 119.382812 " clip-rule="nonzero"/></clipPath><clipPath id="7c69350a46"><path d="M 183.09375 113.15625 L 204.96875 113.15625 L 204.96875 135.03125 L 183.09375 135.03125 Z M 183.09375 113.15625 " clip-rule="nonzero"/></clipPath><clipPath id="9a64a823db"><path d="M 194.03125 113.15625 L 204.96875 124.09375 L 194.03125 135.03125 L 183.09375 124.09375 Z M 194.03125 113.15625 " clip-rule="nonzero"/></clipPath></defs><g fill="#ffffff" fill-opacity="1"><g transform="translate(159.356405, 225.297408)"><g><path d="M 7.296875 0 L 7.296875 -83.640625 L 26.59375 -83.640625 L 26.59375 -48.46875 L 60.765625 -83.640625 L 85.359375 -83.640625 L 59.484375 -56.765625 L 89.65625 0 L 67.921875 0 L 45.328125 -42.328125 L 26.59375 -23.15625 L 26.59375 0 Z M 7.296875 0 "/></g></g></g><g clip-path="url(#ae782e8b7c)"><path fill="#0d3d3f" d="M 162.261719 119.382812 L 197.992188 119.382812 L 197.992188 231.886719 L 162.261719 231.886719 Z M 162.261719 119.382812 " fill-opacity="1" fill-rule="nonzero"/></g><g fill="#ffffff" fill-opacity="1"><g transform="translate(130.612482, 224.3974)"><g><path d="M 6.71875 -83.640625 L 69.78125 -83.640625 L 69.78125 -66.78125 L 28.734375 -66.78125 L 28.734375 -50.046875 L 59.90625 -50.046875 L 59.90625 -32.890625 L 28.734375 -32.890625 L 28.734375 -16.875 L 69.78125 -16.875 L 69.78125 0 L 6.71875 0 Z M 6.71875 -83.640625 "/></g></g></g><g clip-path="url(#7c69350a46)"><g clip-path="url(#9a64a823db)"><path fill="#ffffff" d="M 183.09375 113.15625 L 204.96875 113.15625 L 204.96875 135.03125 L 183.09375 135.03125 Z M 183.09375 113.15625 " fill-opacity="1" fill-rule="nonzero"/></g></g></svg>